<svg width="128" height="52" viewBox="0 0 128 52" fill="none" xmlns="http://www.w3.org/2000/svg">
<path d="M105.174 47.5H21.5925C13.5333 47.5 7 40.9667 7 32.9075C7 30.3476 7.67343 27.8327 8.95268 25.6154L10.9438 22.1641C13.1443 18.3499 17.213 16 21.6164 16H26.0216C28.1421 16 30.069 17.2329 30.9576 19.1582C32.8324 23.2201 38.5371 23.4054 40.6714 19.4737L41.7503 17.4863C43.8309 13.6536 47.3501 10.8057 51.5323 9.57L59.5055 7.21428C64.3705 5.7769 69.5703 5.95468 74.3258 7.721L76.2954 8.45258C81.5003 10.3858 85.5936 14.5073 87.491 19.7253C89.0743 24.0794 94.1624 26.0023 98.2297 23.7838L100.736 22.4166C104.486 20.3714 109.119 20.9266 112.279 23.7995L113.802 25.1833C116.476 27.6142 118 31.0602 118 34.6739C118 41.7576 112.258 47.5 105.174 47.5Z" fill="#23E1F2"/>
<path d="M14.665 40.24C14.1283 40.52 13.5567 40.66 12.95 40.66C12.2033 40.5667 11.48 40.38 10.78 40.1C10.1033 39.82 9.60167 39.4817 9.275 39.085C9.08833 37.9417 8.93667 36.8917 8.82 35.935C8.70333 34.9783 8.61 34.08 8.54 33.24C8.47 32.3767 8.42333 31.56 8.4 30.79C8.37667 29.9967 8.365 29.2033 8.365 28.41C8.365 27.36 8.37667 26.2517 8.4 25.085C8.42333 23.9183 8.44667 22.6817 8.47 21.375C8.51667 20.045 8.55167 18.6333 8.575 17.14C8.59833 15.6233 8.61 13.9783 8.61 12.205C8.91333 12.205 9.36833 12.2983 9.975 12.485C10.5817 12.6483 11.1767 12.8467 11.76 13.08C12.3667 13.3133 12.9033 13.5583 13.37 13.815C13.8367 14.0483 14.0933 14.2467 14.14 14.41C13.9067 15.0633 13.6967 15.915 13.51 16.965C13.3467 18.015 13.2067 19.1817 13.09 20.465C12.9967 21.7483 12.9267 23.1017 12.88 24.525C12.8333 25.9483 12.81 27.36 12.81 28.76C12.81 29.81 12.8217 30.755 12.845 31.595C12.8683 32.4117 12.8917 33.1583 12.915 33.835C12.9617 34.4883 13.02 35.1067 13.09 35.69C13.16 36.25 13.2417 36.81 13.335 37.37C13.9883 35.3867 14.7 33.4033 15.47 31.42C16.2633 29.4367 17.0683 27.535 17.885 25.715C18.725 23.8717 19.5533 22.1567 20.37 20.57C21.1867 18.9833 21.9567 17.6067 22.68 16.44C23.4267 15.25 24.0917 14.3167 24.675 13.64C25.2583 12.94 25.7367 12.5667 26.11 12.52C26.3667 12.5667 26.635 12.6717 26.915 12.835C27.2183 12.975 27.4983 13.15 27.755 13.36C28.0117 13.57 28.245 13.8033 28.455 14.06C28.665 14.3167 28.8283 14.5733 28.945 14.83C28.0817 15.1333 27.1483 15.845 26.145 16.965C25.165 18.085 24.1733 19.4383 23.17 21.025C22.1667 22.5883 21.1867 24.3033 20.23 26.17C19.2967 28.0133 18.445 29.8217 17.675 31.595C16.9283 33.3683 16.2867 35.025 15.75 36.565C15.2133 38.105 14.8517 39.33 14.665 40.24ZM24.1429 35.655C24.1429 35.445 24.1546 35.1883 24.1779 34.885C24.2246 34.5583 24.2946 34.1383 24.3879 33.625C24.4812 33.0883 24.5979 32.4467 24.7379 31.7C24.9012 30.9533 25.0996 30.055 25.3329 29.005C25.3796 28.7717 25.4846 28.3983 25.6479 27.885C25.8112 27.3717 26.0212 26.835 26.2779 26.275C26.5579 25.6917 26.8846 25.1317 27.2579 24.595C27.6546 24.0583 28.1212 23.6617 28.6579 23.405C29.0546 23.4983 29.5796 23.7433 30.2329 24.14C30.8862 24.5133 31.4462 25.0383 31.9129 25.715C31.3762 26.3217 30.9212 26.9283 30.5479 27.535C30.1979 28.1417 29.8712 28.7717 29.5679 29.425C29.2879 30.0783 29.0196 30.755 28.7629 31.455C28.5296 32.155 28.2612 32.89 27.9579 33.66C27.7012 34.3133 27.4679 34.99 27.2579 35.69C27.0479 36.3667 26.9312 36.9617 26.9079 37.475C26.9079 37.895 26.8962 38.1867 26.8729 38.35C26.8729 38.5367 26.8146 38.63 26.6979 38.63C26.6046 38.63 26.4179 38.5717 26.1379 38.455C25.8579 38.3383 25.5662 38.1633 25.2629 37.93C24.9829 37.6733 24.7262 37.3583 24.4929 36.985C24.2596 36.6117 24.1429 36.1683 24.1429 35.655ZM30.8279 20.465C30.8279 20.325 30.8629 20.115 30.9329 19.835C30.8162 19.7183 30.7112 19.5433 30.6179 19.31C30.5479 19.0767 30.5129 18.8667 30.5129 18.68C30.5129 18.47 30.5362 18.19 30.5829 17.84C30.6529 17.4667 30.7346 17.07 30.8279 16.65C30.9212 16.23 31.0379 15.7983 31.1779 15.355C31.3179 14.8883 31.4579 14.4683 31.5979 14.095C31.8779 14.095 32.2162 14.1767 32.6129 14.34C33.0329 14.48 33.4529 14.6783 33.8729 14.935C34.2929 15.1683 34.6779 15.4367 35.0279 15.74C35.3779 16.02 35.6462 16.2883 35.8329 16.545C35.5762 16.8017 35.2379 17.1633 34.8179 17.63C34.3979 18.0733 33.9896 18.5517 33.5929 19.065C33.1962 19.555 32.8346 20.0217 32.5079 20.465C32.1812 20.9083 31.9712 21.2233 31.8779 21.41C31.5979 21.3633 31.3529 21.2467 31.1429 21.06C30.9329 20.85 30.8279 20.6517 30.8279 20.465ZM44.4544 23.86C44.6877 23.86 44.956 23.9067 45.2594 24C45.586 24.07 45.8777 24.175 46.1344 24.315C46.391 24.4317 46.601 24.56 46.7644 24.7C46.951 24.84 47.0444 24.9683 47.0444 25.085C46.5777 26.065 46.146 27.0567 45.7494 28.06C45.3527 29.04 45.0144 29.985 44.7344 30.895C44.4544 31.805 44.2327 32.6567 44.0694 33.45C43.9294 34.2433 43.8594 34.9317 43.8594 35.515C43.8594 36.1683 43.9294 36.7167 44.0694 37.16C44.2094 37.58 44.4427 37.8833 44.7694 38.07C44.4894 38.2567 44.1277 38.4083 43.6844 38.525C43.241 38.6417 42.8444 38.7 42.4944 38.7C41.2344 38.7 40.6044 37.8367 40.6044 36.11C40.6044 34.78 41.0477 32.96 41.9344 30.65C41.4677 31.7233 40.931 32.7383 40.3244 33.695C39.7177 34.6283 39.0994 35.4567 38.4694 36.18C37.8394 36.9033 37.1977 37.4983 36.5444 37.965C35.9144 38.4083 35.331 38.6767 34.7944 38.77C33.931 38.7233 33.231 38.315 32.6944 37.545C32.1577 36.7517 31.8894 35.7483 31.8894 34.535C31.8894 33.2283 32.1694 31.8517 32.7294 30.405C33.2894 28.9583 34.001 27.6167 34.8644 26.38C35.751 25.1433 36.7077 24.1167 37.7344 23.3C38.761 22.46 39.7527 22.0167 40.7094 21.97C40.9427 22.04 41.1994 22.18 41.4794 22.39C41.7827 22.6 42.0627 22.845 42.3194 23.125C42.5994 23.405 42.8327 23.6967 43.0194 24C43.206 24.28 43.311 24.525 43.3344 24.735C42.401 24.875 41.4327 25.33 40.4294 26.1C39.4494 26.87 38.551 27.8033 37.7344 28.9C36.941 29.9733 36.2877 31.1283 35.7744 32.365C35.261 33.6017 35.0044 34.7567 35.0044 35.83C35.0044 36.2733 35.1677 36.5533 35.4944 36.67C36.171 36.53 36.9527 35.9583 37.8394 34.955C38.726 33.9283 39.7994 32.3533 41.0594 30.23C41.2927 29.81 41.5494 29.3433 41.8294 28.83C42.1327 28.3167 42.436 27.78 42.7394 27.22C43.0427 26.66 43.3344 26.1 43.6144 25.54C43.9177 24.9567 44.1977 24.3967 44.4544 23.86ZM49.5898 31.455C50.4531 28.0017 51.2931 25.4817 52.1098 23.895C52.9498 22.285 53.8248 21.48 54.7348 21.48C55.3881 21.48 56.1698 21.795 57.0798 22.425C56.3331 23.755 55.7498 24.8633 55.3298 25.75C54.9331 26.6133 54.6415 27.4067 54.4548 28.13C54.0581 29.53 53.6381 30.9883 53.1948 32.505C52.7515 33.9983 52.3081 35.4333 51.8648 36.81C51.4448 38.1867 51.0481 39.4233 50.6748 40.52C50.3248 41.64 50.0448 42.4917 49.8348 43.075C49.3215 44.4517 48.8081 45.6183 48.2948 46.575C47.8048 47.5317 47.2915 48.3133 46.7548 48.92C46.2181 49.5267 45.6581 49.97 45.0748 50.25C44.4681 50.53 43.8148 50.67 43.1148 50.67C42.6015 50.67 42.0998 50.6117 41.6098 50.495C41.0965 50.4017 40.6181 50.2617 40.1748 50.075C39.7315 49.9117 39.3348 49.7017 38.9848 49.445C38.6348 49.1883 38.3548 48.92 38.1448 48.64C38.1681 48.4767 38.2498 48.3133 38.3898 48.15C38.5065 48.01 38.6231 47.9283 38.7398 47.905C39.1365 48.325 39.5565 48.6283 39.9998 48.815C40.4198 49.0017 40.9331 49.095 41.5398 49.095C42.2865 49.095 42.9515 48.8733 43.5348 48.43C44.0948 47.9867 44.6665 47.1233 45.2498 45.84C45.8331 44.58 46.4631 42.795 47.1398 40.485C47.8165 38.1983 48.6331 35.1883 49.5898 31.455ZM55.2948 18.715C55.2948 18.5983 55.3298 18.4 55.3998 18.12C55.1198 17.84 54.9798 17.4433 54.9798 16.93C54.9798 16.72 55.0031 16.4283 55.0498 16.055C55.1198 15.6817 55.2015 15.285 55.2948 14.865C55.4115 14.4217 55.5281 13.9783 55.6448 13.535C55.7848 13.0917 55.9248 12.7067 56.0648 12.38C56.3448 12.38 56.6831 12.4617 57.0798 12.625C57.4998 12.765 57.9198 12.9633 58.3398 13.22C58.7598 13.4533 59.1448 13.7217 59.4948 14.025C59.8448 14.305 60.1131 14.5733 60.2998 14.83C60.0198 15.0867 59.6698 15.4483 59.2498 15.915C58.8298 16.3817 58.4215 16.8717 58.0248 17.385C57.6281 17.875 57.2665 18.3417 56.9398 18.785C56.6131 19.205 56.4148 19.5083 56.3448 19.695C56.0648 19.6483 55.8198 19.5317 55.6098 19.345C55.3998 19.135 55.2948 18.925 55.2948 18.715ZM69.1663 23.86C69.3996 23.86 69.668 23.9067 69.9713 24C70.298 24.07 70.5896 24.175 70.8463 24.315C71.103 24.4317 71.313 24.56 71.4763 24.7C71.663 24.84 71.7563 24.9683 71.7563 25.085C71.2896 26.065 70.858 27.0567 70.4613 28.06C70.0646 29.04 69.7263 29.985 69.4463 30.895C69.1663 31.805 68.9446 32.6567 68.7813 33.45C68.6413 34.2433 68.5713 34.9317 68.5713 35.515C68.5713 36.1683 68.6413 36.7167 68.7813 37.16C68.9213 37.58 69.1546 37.8833 69.4813 38.07C69.2013 38.2567 68.8396 38.4083 68.3963 38.525C67.953 38.6417 67.5563 38.7 67.2063 38.7C65.9463 38.7 65.3163 37.8367 65.3163 36.11C65.3163 34.78 65.7596 32.96 66.6463 30.65C66.1796 31.7233 65.643 32.7383 65.0363 33.695C64.4296 34.6283 63.8113 35.4567 63.1813 36.18C62.5513 36.9033 61.9096 37.4983 61.2563 37.965C60.6263 38.4083 60.043 38.6767 59.5063 38.77C58.643 38.7233 57.943 38.315 57.4063 37.545C56.8696 36.7517 56.6013 35.7483 56.6013 34.535C56.6013 33.2283 56.8813 31.8517 57.4413 30.405C58.0013 28.9583 58.713 27.6167 59.5763 26.38C60.463 25.1433 61.4196 24.1167 62.4463 23.3C63.473 22.46 64.4646 22.0167 65.4213 21.97C65.6546 22.04 65.9113 22.18 66.1913 22.39C66.4946 22.6 66.7746 22.845 67.0313 23.125C67.3113 23.405 67.5446 23.6967 67.7313 24C67.918 24.28 68.023 24.525 68.0463 24.735C67.113 24.875 66.1446 25.33 65.1413 26.1C64.1613 26.87 63.263 27.8033 62.4463 28.9C61.653 29.9733 60.9996 31.1283 60.4863 32.365C59.973 33.6017 59.7163 34.7567 59.7163 35.83C59.7163 36.2733 59.8796 36.5533 60.2063 36.67C60.883 36.53 61.6646 35.9583 62.5513 34.955C63.438 33.9283 64.5113 32.3533 65.7713 30.23C66.0046 29.81 66.2613 29.3433 66.5413 28.83C66.8446 28.3167 67.148 27.78 67.4513 27.22C67.7546 26.66 68.0463 26.1 68.3263 25.54C68.6296 24.9567 68.9096 24.3967 69.1663 23.86ZM79.2017 21.025C79.8084 21.2117 80.3801 21.6317 80.9167 22.285C81.4534 22.915 81.8501 23.615 82.1067 24.385C81.8501 25.015 81.4534 25.7733 80.9167 26.66C80.3801 27.5467 79.8434 28.4567 79.3067 29.39C78.7701 30.3 78.2801 31.175 77.8367 32.015C77.4167 32.8317 77.1717 33.5083 77.1017 34.045C77.4751 33.6483 77.8834 33.1933 78.3267 32.68C78.7934 32.1433 79.2367 31.6183 79.6567 31.105C80.1001 30.5683 80.5084 30.09 80.8817 29.67C81.2551 29.2267 81.5467 28.9 81.7567 28.69C82.2001 28.2233 82.7251 27.6867 83.3317 27.08C83.9384 26.45 84.5684 25.8667 85.2217 25.33C85.8984 24.77 86.5751 24.3033 87.2517 23.93C87.9284 23.5333 88.5467 23.335 89.1067 23.335C89.7134 23.335 90.2151 23.545 90.6117 23.965C91.0317 24.3617 91.3584 24.7817 91.5917 25.225C91.5917 25.2717 91.4984 25.3417 91.3117 25.435C91.1484 25.505 90.9034 25.7267 90.5767 26.1C90.2501 26.52 89.8767 27.1033 89.4567 27.85C89.0601 28.5733 88.6634 29.3667 88.2667 30.23C87.8934 31.07 87.5784 31.9333 87.3217 32.82C87.0651 33.7067 86.9367 34.5117 86.9367 35.235C86.9367 35.8183 87.0067 36.1917 87.1467 36.355C87.3101 36.5183 87.5317 36.6 87.8117 36.6C88.0684 36.6 88.3367 36.5417 88.6167 36.425C88.8967 36.3083 89.1184 36.25 89.2817 36.25C89.3751 36.2967 89.4451 36.4017 89.4917 36.565C89.5617 36.705 89.5967 36.8333 89.5967 36.95C89.4101 37.1133 89.1884 37.2767 88.9317 37.44C88.6751 37.6033 88.4067 37.755 88.1267 37.895C87.8467 38.035 87.5667 38.1517 87.2867 38.245C87.0301 38.3383 86.7967 38.385 86.5867 38.385C85.9101 38.385 85.3501 38.28 84.9067 38.07C84.4867 37.8833 84.1484 37.6267 83.8917 37.3C83.6584 36.9733 83.4951 36.5883 83.4017 36.145C83.3084 35.6783 83.2617 35.1883 83.2617 34.675C83.2617 34.395 83.2851 34.08 83.3317 33.73C83.3784 33.38 83.4717 32.9717 83.6117 32.505C83.7517 32.015 83.9501 31.4433 84.2067 30.79C84.4634 30.1133 84.7901 29.3083 85.1867 28.375C85.1401 28.375 84.8251 28.5383 84.2417 28.865C83.6584 29.1917 83.0284 29.6933 82.3517 30.37C81.2551 31.42 80.2634 32.4583 79.3767 33.485C78.5134 34.5117 77.6267 35.655 76.7167 36.915C76.2034 37.6383 75.7484 38.245 75.3517 38.735C74.9784 39.2483 74.6517 39.5867 74.3717 39.75C73.8817 39.47 73.5201 39.0733 73.2867 38.56C73.0534 38.07 72.8784 37.5567 72.7617 37.02C72.7617 36.5767 72.8201 36.0167 72.9367 35.34C73.0767 34.6633 73.2517 33.9167 73.4617 33.1C73.6951 32.26 73.9751 31.385 74.3017 30.475C74.6284 29.565 74.9901 28.655 75.3867 27.745C76.2734 25.6917 77.0784 24.0817 77.8017 22.915C78.5484 21.7483 79.0151 21.1183 79.2017 21.025ZM100.063 21.655C100.53 21.655 101.066 21.795 101.673 22.075C102.28 22.355 102.816 22.7167 103.283 23.16C103.166 22.2267 103.015 21.3517 102.828 20.535C102.665 19.695 102.408 18.8317 102.058 17.945C101.731 17.0583 101.288 16.09 100.728 15.04C100.168 13.99 99.4681 12.7883 98.6281 11.435C98.6981 11.225 98.8498 10.98 99.0831 10.7C99.3398 10.42 99.6198 10.1633 99.9231 9.93C100.25 9.67333 100.576 9.45167 100.903 9.265C101.253 9.07833 101.58 8.96167 101.883 8.915C102.536 9.63833 103.155 10.5483 103.738 11.645C104.321 12.7183 104.835 13.885 105.278 15.145C105.721 16.3817 106.06 17.665 106.293 18.995C106.55 20.325 106.678 21.5967 106.678 22.81C106.678 24.0233 106.538 25.2717 106.258 26.555C106.001 27.8383 105.628 29.0983 105.138 30.335C104.671 31.5483 104.123 32.7033 103.493 33.8C102.863 34.8967 102.175 35.8767 101.428 36.74C100.705 37.6033 99.9464 38.3033 99.1531 38.84C98.3598 39.4 97.5664 39.75 96.7731 39.89C95.1631 39.7033 93.9264 39.1783 93.0631 38.315C92.2231 37.475 91.8031 36.3083 91.8031 34.815C91.8031 34.0217 91.9198 33.1583 92.1531 32.225C92.4098 31.2917 92.7364 30.37 93.1331 29.46C93.5531 28.5267 94.0314 27.6283 94.5681 26.765C95.1281 25.8783 95.7114 25.085 96.3181 24.385C96.9481 23.685 97.5781 23.09 98.2081 22.6C98.8381 22.11 99.4564 21.795 100.063 21.655ZM96.4931 38.49C97.3098 38.21 98.1264 37.5917 98.9431 36.635C99.7598 35.6783 100.495 34.5583 101.148 33.275C101.801 31.9683 102.326 30.58 102.723 29.11C103.143 27.6167 103.353 26.1817 103.353 24.805C103.353 24.4083 103.353 24.1633 103.353 24.07C103.353 23.9767 103.341 23.8833 103.318 23.79C102.758 24.0233 102.163 24.42 101.533 24.98C100.903 25.54 100.273 26.1933 99.6431 26.94C99.0131 27.6633 98.4181 28.4567 97.8581 29.32C97.2981 30.1833 96.7964 31.0467 96.3531 31.91C95.9098 32.7733 95.5598 33.6017 95.3031 34.395C95.0464 35.1883 94.9181 35.8883 94.9181 36.495C94.9181 37.6617 95.4431 38.3267 96.4931 38.49ZM111.705 39.225C110.375 39.085 109.313 38.5017 108.52 37.475C107.726 36.4483 107.33 35.1417 107.33 33.555C107.33 32.6217 107.47 31.6533 107.75 30.65C108.03 29.6467 108.426 28.6783 108.94 27.745C109.453 26.7883 110.06 25.89 110.76 25.05C111.46 24.21 112.218 23.4867 113.035 22.88C114.318 21.9233 115.52 21.445 116.64 21.445C117.386 21.8417 118.121 22.67 118.845 23.93C118.961 23.93 119.066 23.93 119.16 23.93C119.253 23.9067 119.358 23.895 119.475 23.895C120.711 23.895 121.33 24.9917 121.33 27.185C121.33 28.655 121.085 30.055 120.595 31.385C120.128 32.6917 119.463 33.8817 118.6 34.955C117.76 36.0283 116.745 36.9383 115.555 37.685C114.388 38.4083 113.105 38.9217 111.705 39.225ZM113.49 28.2C113.093 28.7367 112.72 29.32 112.37 29.95C112.02 30.58 111.716 31.2217 111.46 31.875C111.203 32.505 111.005 33.1233 110.865 33.73C110.725 34.3133 110.655 34.8383 110.655 35.305C110.655 35.865 110.748 36.4017 110.935 36.915C111.121 37.4283 111.331 37.72 111.565 37.79C112.615 37.5567 113.571 37.125 114.435 36.495C115.321 35.8417 116.08 35.0367 116.71 34.08C117.363 33.1233 117.865 32.0383 118.215 30.825C118.588 29.6117 118.775 28.3167 118.775 26.94C118.775 26.3333 118.74 25.855 118.67 25.505C118.6 25.155 118.483 24.8517 118.32 24.595C117.293 24.8983 116.371 25.3883 115.555 26.065C114.761 26.7417 114.073 27.4533 113.49 28.2Z" fill="black"/>
<g clip-path="url(#clip0_1_4)">
<path d="M57.6416 11.7673L58.6621 9.3675C58.7898 9.05249 59.0374 8.80111 59.3505 8.66867C59.6635 8.53622 60.0164 8.53356 60.3314 8.66126C60.6464 8.78896 60.8977 9.03657 61.0302 9.34961C61.1626 9.66266 61.1653 10.0155 61.0376 10.3305L60.099 12.7635L63.3645 16.4717L62.5465 18.5483L58.9367 15.6305L57.9405 18.0879L58.6711 19.8147L58.007 21.453L56.0477 19.2281L53.0922 19.4606L53.7563 17.8223L55.4831 17.0917L56.4793 14.6343L51.8855 14.2027L52.7157 12.1548L57.6416 11.7673Z" fill="black" stroke="black" stroke-linecap="round" stroke-linejoin="round"/>
</g>
<defs>
<clipPath id="clip0_1_4">
<rect width="15" height="15" fill="white" transform="translate(47.7124 11.5572) rotate(-22.9328)"/>
</clipPath>
</defs>
</svg>
